<?xml version="1.0" encoding="utf-8"?>
<!-- Generator: Adobe Illustrator 27.2.0, SVG Export Plug-In . SVG Version: 6.00 Build 0)  -->
<svg version="1.1" id="Layer_1" xmlns="http://www.w3.org/2000/svg" xmlns:xlink="http://www.w3.org/1999/xlink" x="0px" y="0px"
	 viewBox="0 0 36 21" style="enable-background:new 0 0 36 21;" xml:space="preserve">
<style type="text/css">
	.st0{fill:#414042;}
</style>
<g>
	<polygon class="st0" points="4.1,18.9 2.2,22.1 5.9,22.1 14,22.1 17.2,22.1 17.2,18.9 17.2,15.8 14,15.8 14,18.9 7.8,18.9 14,8.4 
		14,14.2 17.2,14.2 17.2,3.1 17.2,-3.1 14,2.2 	"/>
	<polygon class="st0" points="31.9,18.9 22,2.2 18.8,-3.1 18.8,3.1 18.8,14.2 22,14.2 22,8.4 28.2,18.9 22,18.9 22,15.8 18.8,15.8 
		18.8,18.9 18.8,22.1 22,22.1 30.1,22.1 33.8,22.1 	"/>
</g>
</svg>
